<svg xmlns="http://www.w3.org/2000/svg" fill="none" viewBox="0 0 10 10">
  <path stroke="#000000" stroke-linecap="round" stroke-linejoin="round" d="M5 9.5c2.48528 0 4.5 -2.01472 4.5 -4.5S7.48528 0.5 5 0.5 0.5 2.51472 0.5 5 2.51472 9.5 5 9.5" stroke-width="1"></path>
  <path stroke="#000000" stroke-linecap="round" stroke-linejoin="round" d="m5 6.55347 0 0.72461" stroke-width="1"></path>
  <path stroke="#000000" stroke-linecap="round" stroke-linejoin="round" d="m5 2.57886 0 0.72461" stroke-width="1"></path>
  <path stroke="#000000" stroke-linecap="round" stroke-linejoin="round" d="M5.80903 3.5743c-0.13733 -0.16622 -0.33691 -0.27083 -0.55903 -0.27083h-0.58053c-0.36974 0 -0.66947 0.32471 -0.66947 0.72526 0 0.34083 0.21907 0.63568 0.52641 0.70851l0.88386 0.20946C5.75458 5.02829 6 5.35884 6 5.74067c0 0.44873 -0.33579 0.8128 -0.75 0.8128h-0.5c-0.26608 0 -0.4998 -0.15011 -0.63294 -0.37643" stroke-width="1"></path>
  <path stroke="#000000" stroke-linecap="round" stroke-linejoin="round" d="m1.10291 2.75 1.21784 0.70312M8.89713 7.25l-0.97427 -0.5625 -0.24357 -0.14063" stroke-width="1"></path>
</svg>